<?xml version="1.0" standalone="no"?>
<!DOCTYPE svg PUBLIC "-//W3C//DTD SVG 20010904//EN"
 "http://www.w3.org/TR/2001/REC-SVG-20010904/DTD/svg10.dtd">
<svg version="1.0" xmlns="http://www.w3.org/2000/svg"
 width="220.000000pt" height="220.000000pt" viewBox="0 0 220.000000 220.000000"
 preserveAspectRatio="xMidYMid meet">
<metadata>
Created by potrace 1.11, written by Peter Selinger 2001-2013
</metadata>
<g transform="translate(0.000000,220.000000) scale(0.100000,-0.100000)"
fill="#000000" stroke="none">
<path d="M933 2175 c-85 -29 -143 -56 -143 -67 0 -4 -5 -8 -11 -8 -22 0 -160
-113 -217 -178 -95 -107 -167 -236 -197 -353 -14 -53 -16 -93 -11 -239 3 -96
9 -191 14 -210 13 -54 148 -360 163 -370 7 -5 38 -75 44 -100 7 -31 36 -104
43 -110 15 -11 62 -95 68 -121 2 -10 7 -29 10 -41 3 -13 8 -64 11 -114 l6 -91
-63 -32 c-35 -17 -71 -31 -81 -31 -10 0 -20 -4 -24 -9 -6 -11 -91 -36 -155
-46 -42 -7 -160 -42 -169 -51 -2 -2 344 -4 770 -3 686 0 769 2 729 15 -25 8
-67 18 -95 23 -27 5 -63 13 -80 19 -97 33 -127 41 -138 37 -6 -2 -34 8 -62 23
-56 31 -70 63 -59 142 12 87 30 106 99 100 17 -1 48 -2 70 -2 22 0 75 1 119 1
83 1 156 15 156 31 0 6 6 10 14 10 22 0 24 31 22 303 -2 253 -2 257 19 257 35
1 139 11 162 16 38 8 40 47 3 103 -17 28 -34 51 -38 53 -12 5 -76 110 -91 148
-16 42 -17 79 -7 235 8 108 6 128 -14 205 -21 79 -46 133 -74 163 -6 6 -20 26
-30 42 -11 17 -42 54 -70 84 -57 61 -121 94 -281 146 -86 28 -115 33 -205 34
-58 0 -114 2 -125 4 -11 2 -48 -7 -82 -18z"/>
</g>
</svg>
